<?xml version="1.0" encoding="utf-8"?>
<!-- Generator: Adobe Illustrator 24.2.0, SVG Export Plug-In . SVG Version: 6.00 Build 0)  -->
<svg version="1.1" id="Capa_1" xmlns="http://www.w3.org/2000/svg" xmlns:xlink="http://www.w3.org/1999/xlink" x="0px" y="0px"
	 viewBox="0 0 960 560" style="enable-background:new 0 0 960 560;" xml:space="preserve">
<style type="text/css">
	.st0{fill:#002E4F;}
	.st1{fill:#00A4E2;}
	.st2{fill:#E1F3F6;}
	.st3{fill:#008DC4;}
	.st4{fill:#00AFE2;}
	.st5{fill:#006091;}
	.st6{fill:#0076AD;}
	.st7{fill:#00D2FD;}
	.st8{fill:#00396A;}
	.st9{fill:none;stroke:#20C6F0;stroke-width:7.6539;stroke-linecap:round;stroke-miterlimit:10;}
	.st10{fill:#0086CF;}
	.st11{fill:#0089E0;}
	.st12{fill:#CDE5E8;}
	.st13{fill:#F6EE9E;}
	.st14{fill:#F8FDFF;}
	.st15{fill:none;stroke:#DDDD67;stroke-width:0.8679;stroke-miterlimit:10;}
	.st16{fill:none;stroke:#DDDD67;stroke-width:0.755;stroke-miterlimit:10;}
	.st17{fill:#009EE7;}
</style>
<g>
	<g>
		<path class="st0" d="M738.2,510.2c-6.8,8.8-14.8,15.3-13,18.3c0,0,3.6,2.6,13.6,2.6c17.1,0,33.9-1.3,31.1-3
			c-3.8-2.4-14.9-3.3-25.4-6.9c-2.6-0.9,5.7-6,3.4-6.8C743.1,512.6,739.5,511.1,738.2,510.2z"/>
		<path class="st0" d="M914.1,527.9c0,0,2.2,3.1,10.9,3.1c14.8,0,30.2-2,27.8-3.5c-3.3-2.1-29.2-7.5-29.2-7.5l-5.8-7.2l-9.8,5.4
			L914.1,527.9z"/>
		<g>
			<path class="st1" d="M867.3,310.3c-10.6,0-18.6-2.1-19.3-2.3c-5.5-1.5-8.8-7.2-7.3-12.7c1.5-5.5,7.2-8.8,12.7-7.3
				c0.4,0.1,23.7,6.1,37.3-5.6c9.1-7.8,12.6-22.5,10.3-43.8l-0.7-6.8l21-11.9c5-2.8,11.3-1.1,14.1,3.9c2.8,5,1.1,11.3-3.9,14.1
				l-9.3,5.3c1.5,25-4.6,43.5-18.1,55C892.8,307.9,878.6,310.3,867.3,310.3z"/>
		</g>
		<g>
			<path class="st2" d="M903.2,252.8c-0.4,15.1-4.4,26-12,32.5c-14.9,12.8-40.5,6.3-40.9,6.2c-6.1-1.6-12.3,1.9-13.9,8
				c-1.7,6.1,1.9,12.3,8,14c0.7,0.2,9.5,4.6,21.2,4.2c44.1-1.6,70.8-39.6,71.2-61.8L903.2,252.8z"/>
		</g>
		<g>
			<path class="st3" d="M842.6,200c-4-1.8-7.8-3.7-11.7-5.7c-36.6,20.8-83.3,47.5-84.2,48.4c0,0,23.2,37,24.7,38.4
				c1,1,58.5-40.3,99.9-70.3C861.8,207.2,851.9,204.2,842.6,200z"/>
			<path class="st4" d="M843.2,198.9c9.6,4.2,19.6,7.3,29.4,11.1c22.8-16.5,40.4-29.3,40.4-29.3l-39-11c0,0-18.8,10.6-41.9,23.8
				C835.7,195.5,839.4,197.3,843.2,198.9z"/>
			<polygon class="st5" points="776,150.4 798.9,212.5 843.8,229 787,125.2 			"/>
			<polygon class="st5" points="846.2,244.2 813,244.2 842.6,295.9 887.6,314.9 			"/>
			<path class="st6" d="M887.6,314.9l-26.5-45.1L748,336.1l-22.3-38l14-225.7l50.9-29.8l91.5,156.2l30.8-18.1l25.6,43.7l-30.8,18.1
				l26.5,45.1L887.6,314.9z M785,139.8l-2.9,1.7L774.3,262l61.2-35.9L785,139.8z"/>
			<polygon class="st3" points="688.1,287.8 725.8,298.2 748,336.1 708.3,326.1 			"/>
			<polygon class="st4" points="688.1,287.8 725.8,298.2 739.7,72.5 705.2,64.2 			"/>
			<polygon class="st7" points="705.2,64.2 739.7,72.5 790.6,42.6 755.6,32.5 			"/>
		</g>
		<path class="st0" d="M780.9,377.8c0,0,5.5,59.6,5.5,80.5c0,0-43.4,33.9-54.1,51.6c4.6,3.5,13.6,8.1,19.5,7.9
			c29-27.7,60.8-47.4,60.8-47.4s13.7-39.8,18-73.5L780.9,377.8z"/>
		<path class="st2" d="M811.9,380.6c9.8,0.1,19.8-1.6,28.2-6.2c-2.8-11.9,3.2-47.1,10.7-65.8c0,0,6-13.1,1.8-17.1
			c-15.4-14.9-28.6-13.6-32.7-13.8c-14.2,12-40.6,47.3-39.5,94C787.7,379.3,802.5,380.5,811.9,380.6z"/>
		<path class="st8" d="M907.7,520c5.7-1.6,11.1-4.2,14.6-8.8C905.5,484,844,384.1,840.6,376.2c-0.1-0.2-0.2-0.4-0.2-0.7
			c-9,4.9-19.8,6.6-30.3,6.2c-9.1-0.3-22.3-1.6-29.7-8.4c0,0.5,0,1,0,1.4c1.3,26.1,87.8,113,121.8,146.3
			C904.2,520.9,906,520.4,907.7,520z"/>
		<g>
			<path class="st1" d="M729.1,353.5c-2.4,0-4.7-0.3-6.9-1.1c-4.6-1.5-10.6-5.4-13.5-15c-1.6-5.5,1.5-11.3,7-12.9
				c5.5-1.6,11.3,1.5,12.9,7c0.2,0.6,0.4,1,0.5,1.3c1.1,0,5.2-0.3,15.2-6.2c8.9-5.2,19.5-13.1,29.7-20.6
				c17.3-12.8,33.6-24.8,47-29.1c5.5-1.7,11.3,1.3,13,6.8c1.7,5.5-1.3,11.3-6.8,13c-10.2,3.2-25.8,14.8-41,26
				C764.2,339.1,744.6,353.5,729.1,353.5z"/>
		</g>
		<g>
			<path class="st1" d="M748.5,345.8c-1.3-6.1-2.6-12.8-6.5-17.9c-8.4,4.6-11.9,4.9-12.9,4.9c-0.1-0.2-0.3-0.6-0.5-1.3
				c-1.6-5.5-7.4-8.6-12.9-7c-5.5,1.6-8.6,7.4-7,12.9c2.9,9.6,8.9,13.5,13.5,15c2.2,0.7,4.5,1.1,6.9,1.1c6,0,12.7-2.2,19.8-5.8
				C748.8,347.1,748.6,346.4,748.5,345.8z"/>
			<path class="st2" d="M834,283.7c-1.7-5.5-7.6-8.5-13-6.8c-13.5,4.3-29.8,16.3-47,29.1c-10.2,7.6-20.8,15.4-29.7,20.6
				c-0.4,0.2-0.8,0.5-1.2,0.7c3.9,5.1,10.6,30.4,10.7,31c11-5.8,63.7-45.9,75.2-58C832.9,296.1,835.8,289.1,834,283.7z"/>
		</g>
		<path class="st9" d="M701.6,326.1"/>
		<g>
			<path class="st1" d="M714.4,345.2c-0.6,0-1.2-0.2-1.8-0.6c-8.1-5.8-12.4-17-12.6-17.5c-0.6-1.6,0.2-3.3,1.8-3.9
				c1.6-0.6,3.3,0.2,3.9,1.8l0,0c0,0.1,3.8,9.9,10.4,14.7c1.4,1,1.7,2.9,0.7,4.2C716.3,344.7,715.4,345.2,714.4,345.2z"/>
		</g>
		<g>
			<path class="st1" d="M714.4,337.7c-1,0-1.9-0.4-2.5-1.3c-3.9-5.5-7-18.6-7.4-20.1c-0.4-1.6,0.6-3.3,2.3-3.7
				c1.6-0.4,3.3,0.6,3.7,2.3c0.9,3.7,3.7,14.1,6.4,18c1,1.4,0.6,3.3-0.7,4.2C715.7,337.6,715,337.7,714.4,337.7z"/>
		</g>
		<g>
			<path class="st1" d="M718.6,336c-1.2,0-2.3-0.7-2.8-1.9c-2.8-6.8-3.9-21.2-3.9-21.8c-0.1-1.7,1.1-3.1,2.8-3.3
				c1.7-0.1,3.1,1.1,3.3,2.8c0.3,3.9,1.5,15,3.5,20c0.6,1.6-0.1,3.3-1.7,4C719.4,335.9,719,336,718.6,336z"/>
		</g>
		<g>
			<path class="st1" d="M723.2,334.5c-1.4,0-2.6-0.9-3-2.3c-1.9-7.5-0.2-15.1-0.1-15.4c0.4-1.6,2-2.7,3.7-2.3c1.6,0.4,2.7,2,2.3,3.7
				c0,0.1-1.5,6.5,0.1,12.4c0.4,1.6-0.6,3.3-2.2,3.7C723.7,334.5,723.5,334.5,723.2,334.5z"/>
		</g>
		<g>
			<path class="st1" d="M845.8,300.3c-1.4,0-2.8-0.3-4.2-0.9c-4.9-2.3-7-8.1-4.7-13c2.4-5.1,6.8-10.3,7.2-10.9
				c3.5-4.1,9.6-4.6,13.8-1.2c4.1,3.5,4.6,9.6,1.2,13.7l0,0c-1.2,1.5-3.5,4.5-4.5,6.7C853,298.2,849.5,300.3,845.8,300.3z"/>
		</g>
		<g>
			<path class="st10" d="M847.2,295.2c1.2,1.3,2.4,2.5,3.6,3.6c1.6-1,2.9-2.4,3.8-4.2c1-2.1,3.3-5.2,4.5-6.7
				c3.5-4.1,2.9-10.3-1.2-13.7c-4.1-3.5-10.3-3-13.8,1.2c-0.2,0.2-1,1.2-2,2.6C842.3,284.1,843,290.5,847.2,295.2z"/>
		</g>
		<g>
			<path class="st1" d="M879.3,284.5c-3.9,9.4-14.7,13.9-24.1,10l0,0c-9.4-3.9-13.9-14.7-10-24.1l4.9-11.8
				c3.9-9.4,14.7-13.9,24.1-10l0,0c9.4,3.9,13.9,14.7,10,24.1L879.3,284.5z"/>
		</g>
		<path class="st8" d="M847.2,269c-1.5,6.3-10.6,4.3-14,1c-4.7-4.6-7.5-17.5,2.9-16.8c-7.5-11.4,18-23.7,20.7-10.5
			c2-3.4,4-6.4,8.5-6.7c3.2-0.2,8.8,2.3,8.3,6.2c4.7-3.7,11.7-3.5,16.3,0.3c1.5,1.2,4.2,3.9,2.9,5.9c-0.7,1.1-4.6,1.4-5.9,1.8
			c2.2-1,11.3,1,9.5,4.8c-0.8,1.8-5.3,0.2-6.6-0.2c0,0,0,0.4,0,0.4c4.9,2.7,6.9,5.4,6.3,11.4c-0.3,2.8-1.6,8-4.9,8.4
			c-1.7,0.2-3.6-0.9-3.6-2.6c4.1,4-1.7,14.9-6.8,9.5c-2-2.1-1-5.6,0.9-7.4c-3-1.7-9.6-11-4.9-13.4c-2.2,0.1-12.3-3.4-9.1-6.3
			c0.8,3.4-3.3,7.7-6.7,6c2.1,4.5-4,7.9-7.8,8c2.3,2.9-4.8,6.3-6.9,2.1L847.2,269z"/>
	</g>
	<g>
		<path class="st11" d="M500.6,232.2c0,0-5.9-22.7,23.5-28.1l-2.2,27.2L500.6,232.2z"/>
		<g>
			<path class="st12" d="M382.9,289.4c-6.4,0-12.4-1.3-17.9-3.9c-26.7-12.6-29.7-50.5-29.8-52.1c-0.4-5.7,3.9-10.7,9.6-11.1
				c5.7-0.4,10.7,3.9,11.1,9.6c0.6,7.6,4.9,28.7,18,34.9c10.8,5.1,27.5-0.1,48.3-14.9c4.7-3.3,11.1-2.2,14.5,2.5
				c3.3,4.7,2.2,11.1-2.5,14.5C414.8,282.5,397.7,289.4,382.9,289.4z"/>
		</g>
		<g>
			<g>
				<path class="st4" d="M438,308.9c2.9-7.6,5.6-15.3,8.7-22.7c-2.1-0.2-4.2-0.4-6.4-0.8c-10.1-1.9-18.6-6-25.5-12.3
					c-7-6.3-12.4-14.2-16.2-23.8c-3.8-9.6-6-20.5-6.6-32.8c-0.6-12.2,0.4-25.1,3-38.7c2.6-13.9,6.5-26.3,11.6-37.3
					c5.1-11,11.1-20.3,18.2-27.8c7.1-7.5,15-12.9,23.8-16.2c8.8-3.2,18.2-3.9,28.3-2c8,1.5,15,4.5,21.1,9c2.9-5.9,6.1-11.6,9.1-17.4
					c3.6-6.8,6.9-13.7,10-20.7c1.3-3,2.5-6.1,3.7-9.1c-10.2-5.8-21.6-9.9-34.3-12.4c-17.9-3.4-34.8-2.8-50.7,1.9
					c-15.8,4.7-30.1,12.6-42.8,23.7c-12.7,11.1-23.5,25-32.3,41.8c-8.8,16.8-15.2,35.5-19.2,56.1c-3.9,20.7-4.9,40.4-2.9,59.3
					c2,18.8,6.9,35.8,14.6,50.8c7.7,15,18,27.6,31,37.8c12.1,9.5,26.3,16.1,42.7,19.7C430.9,326.5,434.7,317.8,438,308.9z"/>
				<path class="st5" d="M578.5,153c-2-18.8-6.9-35.8-14.6-50.8c-7.7-15-18-27.6-31-37.8c-3.5-2.8-7.2-5.2-11-7.5
					c-1.2,3-2.4,6.1-3.7,9.1c-3.2,7-6.4,13.9-10,20.7c-3,5.8-6.2,11.6-9.2,17.5c1.1,0.8,2.1,1.6,3.1,2.5c7,6.3,12.4,14.2,16.4,23.8
					c3.9,9.6,6.2,20.5,6.9,32.6c0.6,12.1-0.4,25.1-3,38.9c-2.6,13.6-6.4,26-11.5,37.1c-5.1,11.1-11.2,20.5-18.4,28
					c-7.2,7.5-15.2,12.9-24,16.1c-6.5,2.4-13.2,3.4-20.2,3c-3.5,8.2-6.4,16.6-9.5,24.9c-3.1,8.2-6.6,16.2-10.2,24.2
					c0.8,0.2,1.6,0.3,2.4,0.5c17.9,3.4,34.8,2.8,50.7-1.9c15.8-4.7,30.1-12.6,42.8-23.7c12.7-11.1,23.4-25,32.3-41.8
					c8.8-16.8,15.2-35.5,19.2-56.1C579.5,191.6,580.5,171.9,578.5,153z"/>
			</g>
			<g>
				<path class="st6" d="M462.4,346.7c-17.9-3.4-33.4-10.3-46.4-20.5c-13-10.2-23.3-22.8-31-37.8c-7.7-15-12.6-31.9-14.6-50.8
					c-2-18.8-1.1-38.6,2.9-59.3c3.9-20.7,10.3-39.4,19.2-56.1c8.8-16.8,19.6-30.7,32.3-41.8c12.7-11.1,26.9-19,42.8-23.7
					c15.8-4.7,32.7-5.4,50.7-1.9c17.9,3.4,33.4,10.3,46.4,20.5c13,10.2,23.3,22.8,31,37.8c7.7,15,12.6,31.9,14.6,50.8
					c2,18.8,1.1,38.6-2.9,59.3c-3.9,20.7-10.3,39.4-19.2,56.1c-8.8,16.8-19.6,30.7-32.3,41.8c-12.7,11.1-27,19-42.8,23.7
					C497.2,349.4,480.3,350.1,462.4,346.7z M472,296.1c9.8,1.9,19.1,1.2,27.9-2.1c8.8-3.2,16.8-8.6,24-16.1
					c7.2-7.5,13.4-16.8,18.4-28c5.1-11.1,8.9-23.5,11.5-37.1c2.6-13.9,3.6-26.8,3-38.9c-0.6-12.1-2.9-23-6.9-32.6
					c-3.9-9.6-9.4-17.6-16.4-23.8c-7-6.3-15.4-10.3-25.1-12.2c-10.1-1.9-19.5-1.3-28.3,2c-8.8,3.3-16.7,8.6-23.8,16.2
					c-7.1,7.5-13.1,16.8-18.2,27.8c-5.1,11-8.9,23.4-11.6,37.3c-2.6,13.6-3.6,26.5-3,38.7c0.6,12.2,2.8,23.2,6.6,32.8
					c3.8,9.6,9.2,17.5,16.2,23.8C453.4,290.1,462,294.2,472,296.1z"/>
			</g>
		</g>
		<g>
			<path class="st8" d="M645.3,194.4l0.8,38.1c0,0-10.9,9.8-20.6,0l3.6-42.9L645.3,194.4z"/>
			<path class="st0" d="M600.4,498.5c-0.6-0.5-4.9-2.5-5.5-3c-2.3,3.4-3.9,5.3-6.6,8.1c6.7,5.9,5,13,5,13s-4.8,4.1-6.6,5
				c-5.9,2.9-16.9,7-16.9,7l27.5,2.2l20.4-20.9C610.6,505.8,605,502.1,600.4,498.5z"/>
			<path class="st0" d="M492.5,500c-4.4-0.8-9.9,2.6-13.5,0c-0.8,7.7-0.7,11.8-0.7,11.8l-40.8,16.8h52c0.5-5.5-0.5-10.9,0.2-16
				C490.2,510,492,502.5,492.5,500z"/>
			<path class="st12" d="M539.9,315l-46.1,87.5c0,0,18.7,15.8,37,21l34.5-103.1L539.9,315z"/>
			<path class="st0" d="M590.3,505.8c2.8-2.8,5-6.2,7.3-9.6c-11.9-10.2-17.7-20.7-33.9-38.8c-6.7-7.5,11-50.4,15.4-57.6
				c7.7-12.9,8.9-22.3,15-44.4l-45,16.8c-10.7,38.4-23.2,76.7-10.7,95c13.2,19.3,36.7,34.9,48,42.7
				C586.8,510.1,590,505.6,590.3,505.8z"/>
			<g>
				<path class="st1" d="M514.6,227.7c-0.6,0-1.2-0.2-1.8-0.6c-1.4-1-1.7-2.9-0.7-4.3c3.6-5,4.4-9.2,4.4-9.2
					c0.3-1.6,1.9-2.8,3.5-2.5c1.7,0.3,2.8,1.9,2.5,3.5c0,0.2-1,5.5-5.5,11.7C516.5,227.3,515.5,227.7,514.6,227.7z"/>
			</g>
			<path class="st13" d="M590.9,364.6c13.4-36.8,24.8-94.4,29.1-117.5c-2.4-1-4.7-1.7-6.6-2.3c-4-1.1-8.7-2.4-12.8-1.1
				c-2.1,0.6-3.9,1.7-5.7,2.8c-1.7,5-2.4,9.2-2.4,9.2s-28.8,55-47.5,92.5C560.9,351.9,576.5,357.1,590.9,364.6z"/>
			<path class="st8" d="M544.5,349.4C544.4,349.4,544.4,349.4,544.5,349.4c-1.7,3.3-3.3,6.5-4.7,9.5c0,0,0,0,0,0
				c-3.7,6.5-7.7,12.6-11.5,18.4c-37,55.8-51,100.3-53.4,121.3c3.5,2.8,16.9,4.3,21.3,5.1c6.8-34.9,24.6-57.2,56.4-83.5
				c10.6-8.8,18.6-20,25.6-29.3c4.2-5.5,8.3-14.4,12.3-25.2C576,358.2,560.4,353,544.5,349.4z"/>
			<g>
				<path class="st1" d="M508.5,364.8c-4.3,0-8.3-2.7-9.8-7c-1.9-5.4,1-11.3,6.4-13.2c12.6-4.4,31.9-21.6,44.9-40
					c26.4-37.4,44.9-58.2,45.7-59.1c3.8-4.3,10.4-4.6,14.6-0.8c4.3,3.8,4.6,10.4,0.8,14.6l0,0c-0.2,0.2-18.6,20.8-44.2,57.2
					c-12.8,18.2-35.5,40.9-55,47.6C510.8,364.6,509.7,364.8,508.5,364.8z"/>
			</g>
			<g>
				<path class="st1" d="M612.7,250.6c-0.2,0-0.5,0-0.7,0c-5.4-0.4-9.4-5.1-9-10.4c0.4-5.6,2.6-12.1,2.8-12.8
					c1.8-5.1,7.3-7.8,12.4-6c5.1,1.8,7.8,7.3,6,12.4c-0.6,1.8-1.7,5.5-1.8,7.8C622,246.7,617.7,250.6,612.7,250.6z"/>
			</g>
			<g>
				<path class="st10" d="M615.5,240.3c1.7,2,3.6,3.7,5.6,5.4c0.7-1.2,1.2-2.6,1.3-4.1c0.2-2.3,1.2-6,1.8-7.8c1.8-5.1-1-10.6-6-12.4
					c-4.2-1.5-8.8,0.2-11.2,3.7C607.9,230.5,612.4,236.7,615.5,240.3z"/>
			</g>
			<g>
				<path class="st1" d="M640.7,219.2c-0.2,10.2-8.7,18.3-18.9,18l0,0c-10.2-0.2-18.3-8.7-18-18.9l0.3-12.8
					c0.2-10.2,8.7-18.3,18.9-18l0,0c10.2,0.2,18.3,8.7,18,18.9L640.7,219.2z"/>
			</g>
			<g>
				<path class="st1" d="M493.9,361.9c-4.3,0-9.1-1.1-14.6-3.4c-1.6-0.7-2.3-2.4-1.6-4c0.7-1.6,2.4-2.3,4-1.6
					c8,3.4,14.4,3.9,18.5,1.4c1.4-0.9,3.3-0.4,4.2,1c0.9,1.4,0.4,3.3-1,4.2C500.6,361.1,497.5,361.9,493.9,361.9z"/>
			</g>
			<g>
				<path class="st1" d="M497.6,366.3c-4.9,0-8.7-0.9-13.2-2L483,364c-1.6-0.4-2.6-2-2.3-3.7c0.4-1.6,2-2.7,3.7-2.3l1.4,0.3
					c7.4,1.8,12.3,3,23.1,0.2c1.6-0.4,3.3,0.6,3.7,2.2c0.4,1.6-0.6,3.3-2.2,3.7C505.2,365.8,501.1,366.3,497.6,366.3z"/>
			</g>
			<g>
				<path class="st1" d="M493.7,355.9c-9.6,0-16.1-5.9-16.5-6.2c-1.2-1.1-1.3-3.1-0.2-4.3c1.1-1.2,3.1-1.3,4.3-0.2
					c0.3,0.3,7.3,6.5,16.8,4c1.6-0.4,3.3,0.6,3.7,2.2c0.4,1.6-0.6,3.3-2.2,3.7C497.5,355.7,495.6,355.9,493.7,355.9z"/>
			</g>
			<g>
				<path class="st1" d="M500.1,352.6c-0.1,0-0.2,0-0.4,0c-10.4-1.2-14.6-8.7-14.8-9c-0.8-1.5-0.3-3.3,1.2-4.1
					c1.5-0.8,3.3-0.3,4.1,1.2c0.1,0.2,3,5.1,10.2,5.9c1.7,0.2,2.9,1.7,2.7,3.4C502.9,351.5,501.6,352.6,500.1,352.6z"/>
			</g>
			<g>
				<path class="st1" d="M536.5,232.1c-0.2,0-0.3,0-0.5,0c-5-0.8-18.9-3-22.1-3c-1.7,0-3.1-1.4-3.1-3.1c0-1.7,1.4-3.1,3.1-3.1
					c4.3,0,21.2,2.8,23.1,3.1c1.7,0.3,2.8,1.8,2.5,3.5C539.3,231,538,232.1,536.5,232.1z"/>
			</g>
			<g>
				<path class="st1" d="M534.6,238.5c-0.3,0-0.5,0-0.8-0.1c-0.1,0-14.6-4-21.4-4.4c-1.7-0.1-3-1.5-2.9-3.2c0.1-1.7,1.5-3,3.2-2.9
					c7.4,0.4,22,4.4,22.7,4.6c1.6,0.4,2.6,2.1,2.1,3.7C537.2,237.6,535.9,238.5,534.6,238.5z"/>
			</g>
			<g>
				<path class="st1" d="M533.1,245.2c-0.3,0-0.6,0-0.9-0.1c-13.7-4.4-17.1-4.7-18.9-4.9c-0.8-0.1-1.5-0.1-2.5-0.4
					c-1.6-0.4-2.6-2.1-2.2-3.7c0.4-1.6,2.1-2.6,3.7-2.2c0.5,0.1,0.8,0.2,1.5,0.2c2.2,0.2,5.9,0.5,20.3,5.1c1.6,0.5,2.5,2.2,2,3.8
					C535.6,244.4,534.4,245.2,533.1,245.2z"/>
			</g>
			<g>
				<path class="st1" d="M527.1,250.1c-0.1,0-0.1,0-0.2,0c-13.8-1-14.3-8.4-14.3-9.3l6.1-0.1c0,0,0-0.1,0-0.2c0,0,0.6,3,8.7,3.6
					c1.7,0.1,2.9,1.6,2.8,3.3C530,248.9,528.7,250.1,527.1,250.1z"/>
			</g>
			<path class="st1" d="M515.6,246.4c0,0-2.6-1.2-6.8-1.2c-3.5,0-8.2-5.9-8.2-12c0,0-1.7-18,17.3-9.9L515.6,246.4z"/>
			<path class="st12" d="M575.4,300l-26.7,131.2c0,0,41.3,9.9,66.6-4.6l6.4-182.3C621.8,244.2,593.4,234.3,575.4,300z"/>
			<path class="st2" d="M581.6,372.2l25.5-1.4c0,0,0.6,39-14.6,37.5C592.5,408.3,571.6,412.9,581.6,372.2z"/>
			<path class="st2" d="M613.6,241.1c-2.8-2.5-6.4-3.9-10.2-3.9c-4.3,0-8.5,1.8-11.4,5.1c-0.8,0.9-19.4,21.7-46.1,59.5
				c-1.7,2.5-3.7,5-5.7,7.5l-2.7,3.3l3,3.1c3.1,3.3,6.4,6.6,9.6,9.7c1.7,1.7,3.5,3.4,5.2,5.1l3.8,3.8l3.4-4.1
				c3.1-3.6,5.9-7.3,8.4-10.8c25.5-36.1,43.7-56.5,43.8-56.7C620.4,256.4,619.9,246.7,613.6,241.1z"/>
			
				<rect x="544.2" y="300.6" transform="matrix(0.6683 -0.7439 0.7439 0.6683 -53.9943 516.2233)" class="st14" width="15.4" height="36.1"/>
			<path class="st8" d="M585.3,226.5l23.4,9.2c0,0,10-48.5,2.7-55.8C611.4,179.9,585.3,177.4,585.3,226.5z"/>
			<path class="st8" d="M612.8,188.3c0.8,1.2,19,13.4,33.3,10c0,0-2.4-21.4-35.8-18.4L612.8,188.3z"/>
			<path class="st15" d="M626.8,211.2c0,5.6-4.6,10.2-10.2,10.2c-5.6,0-10.2-4.6-10.2-10.2c0-5.6,4.6-10.2,10.2-10.2
				C622.2,201,626.8,205.6,626.8,211.2z"/>
			<path class="st16" d="M649.8,213.2c0,4.9-4,8.9-8.9,8.9c-4.9,0-8.9-4-8.9-8.9c0-4.9,4-8.9,8.9-8.9
				C645.9,204.3,649.8,208.3,649.8,213.2z"/>
			<path class="st15" d="M626.8,211.2c0,0,3.4-1.3,5.4,0.7"/>
		</g>
		<g>
			<g>
				<path class="st10" d="M330.2,229.1c-0.2,0-0.5,0-0.7,0c-5.4-0.4-9.4-5.1-9-10.4c0.4-5.6,2.6-12.1,2.8-12.8
					c1.8-5.1,7.3-7.8,12.4-6c5.1,1.8,7.8,7.3,6,12.4c-0.6,1.8-1.7,5.5-1.8,7.8C339.5,225.2,335.2,229.1,330.2,229.1z"/>
			</g>
			<g>
				<path class="st0" d="M324.4,499.9c16.2,7.5,29.4,7.3,30.5,7.5c10.5-18.8,42.3-69.5,13.4-111.2l-40.9-22
					C327.4,374.2,368.3,416.8,324.4,499.9z"/>
				<path class="st0" d="M345.5,516.5c0,0,3.8-7.7,6.7-12.8c-2.2-0.3-12.1-0.7-16.2-2.2c-3.8,7.8-12.1,19.2-18,27H373L345.5,516.5z"
					/>
				<path class="st8" d="M413.4,398.6c-6.8-13.3-56.4-53.2-60.9-76.1c-0.4-2-0.7-4.1-1-6.2c-8,4.2-18.3,5.4-26.5,5.8
					c-9.3,0.5-14.8,1-23.8-3.3c0.8,14.2-1.6,28,6.7,42.4c16.5,28.6,71.2,53.1,77.3,62.5c12,18.6,16.2,59.1,20.3,83.8
					c6.4,0,21.7-0.3,28-2.5C431.4,492.2,434.8,440.1,413.4,398.6z"/>
				<path class="st0" d="M430.5,514.3c0,0-1.8-7.2-2.3-10.6c-6.3,2.2-9.9,0-16.4,0c1,6.1,0.3,17.6,0.8,24.3h52L430.5,514.3z"/>
				<path class="st12" d="M325.4,329.5c7.9-0.4,24.6-2.6,31.3-9.3c-1.4-10.9-6.2-28.4-4.5-42.5c5.8-47.8-17.5-62.1-17.5-62.1
					s-10.7-7.5-19.4,1.5c-13.1,13.5-25.9,51.7-24.6,108.2C299.6,330.1,315.9,330,325.4,329.5z"/>
			</g>
			<g>
				<path class="st1" d="M445,344.6c-0.8,0-1.6-0.1-2.4-0.3c-37.6-8.7-69.4-31.2-92-65.1c-17-25.4-22.8-48.2-23.1-49.1
					c-1.4-5.6,2-11.2,7.5-12.6c5.5-1.4,11.2,2,12.6,7.5c0.1,0.4,5.5,20.9,20.6,43.3c19.9,29.5,46.5,48.3,79.1,55.9
					c5.6,1.3,9.1,6.9,7.8,12.4C454,341.4,449.7,344.6,445,344.6z"/>
			</g>
			<path class="st2" d="M422.1,313.5c-20.7-9.8-38.3-25.3-52.4-46.2c-14.9-22.1-20.3-42.5-20.3-42.7c-1.4-5.4-6.2-9.2-11.8-9.2
				c-1,0-2,0.1-3,0.4c-3.2,0.8-5.8,2.8-7.5,5.6c-1.7,2.8-2.2,6.1-1.4,9.2l0.1,0.2c1.6,7,8,31.5,23.3,54.3
				c18.3,27.3,43,47.8,71.6,59.2c0.2,0.1,0.4,0.1,0.7,0.1c0.4,0,0.7-0.1,1-0.3c0.5-0.3,0.8-0.9,0.8-1.5v-27.5
				C423.2,314.4,422.8,313.8,422.1,313.5z"/>
			<g>
				<path class="st1" d="M452.7,345.4c-3.3,0-6.9-0.4-10.6-1.1c-1.7-0.3-2.7-1.9-2.4-3.6c0.3-1.7,1.9-2.7,3.6-2.4
					c9.1,1.8,16.7,1.2,22.5-2c1.5-0.8,3.3-0.2,4.1,1.3c0.8,1.5,0.2,3.3-1.3,4.1C464.1,344.1,458.7,345.4,452.7,345.4z"/>
			</g>
			<g>
				<path class="st1" d="M453.1,338.5c-1.5,0-2.9-0.1-4.5-0.3c-1.7-0.2-2.8-1.8-2.6-3.5c0.2-1.7,1.8-2.8,3.5-2.6
					c9.8,1.4,18.8-3.6,18.9-3.7c1.5-0.8,3.3-0.3,4.2,1.1c0.8,1.5,0.3,3.3-1.1,4.2C471,334,463,338.5,453.1,338.5z"/>
			</g>
			<g>
				<path class="st1" d="M450.4,332.5c-0.5,0-1,0-1.5,0c-1.7-0.1-3-1.6-2.9-3.2c0.1-1.7,1.6-3,3.2-2.9c7.2,0.4,11-3.9,11-4
					c1.1-1.3,3-1.5,4.3-0.4c1.3,1.1,1.5,3,0.4,4.3C464.9,326.5,459.9,332.5,450.4,332.5z"/>
			</g>
			<g>
				<path class="st1" d="M439.9,327.4c-1.7,0-3.1-1.4-3.1-3c0-1.7,1.4-3,3-3c0.3,0,6.3-0.1,9.7-5.1c1-1.4,2.9-1.7,4.2-0.8
					c1.4,1,1.7,2.9,0.8,4.2C449.3,327.3,440.2,327.4,439.9,327.4z"/>
			</g>
			<g>
				<path class="st1" d="M429.9,258.6c-0.9,0-1.9-0.4-2.5-1.3c-4.5-6.3-5.4-11.5-5.5-11.7c-0.3-1.7,0.8-3.2,2.5-3.5
					c1.7-0.3,3.2,0.8,3.5,2.5c0,0,0.8,4.2,4.4,9.2c1,1.4,0.7,3.3-0.7,4.3C431.1,258.4,430.5,258.6,429.9,258.6z"/>
			</g>
			<g>
				<path class="st1" d="M430.5,259.9c-0.2,0-0.4,0-0.6-0.1c-6.7-1.3-19.9-1.3-20-1.3c-1.7,0-3-1.4-3-3c0-1.7,1.4-3,3-3
					c0.6,0,14,0,21.2,1.4c1.7,0.3,2.7,1.9,2.4,3.6C433.2,258.9,431.9,259.9,430.5,259.9z"/>
			</g>
			<g>
				<path class="st1" d="M408.2,266.3c-1.5,0-2.8-1.1-3-2.7c-0.2-1.7,1-3.2,2.7-3.4c1.9-0.2,19.1-2.3,24.6-1.3
					c1.7,0.3,2.8,1.9,2.5,3.5c-0.3,1.7-1.9,2.8-3.5,2.5c-3.5-0.6-15.8,0.5-22.8,1.4C408.5,266.2,408.3,266.3,408.2,266.3z"/>
			</g>
			<g>
				<path class="st1" d="M412.2,273.1c-1.4,0-2.7-1-3-2.5c-0.3-1.7,0.8-3.3,2.4-3.6c7.4-1.4,9.4-2.1,12.9-3.2
					c1.7-0.5,3.8-1.2,6.9-2.1c1.6-0.5,3.3,0.5,3.8,2.1c0.5,1.6-0.5,3.3-2.1,3.8c-3,0.9-5,1.5-6.7,2.1c-3.7,1.2-5.9,1.9-13.7,3.4
					C412.6,273.1,412.4,273.1,412.2,273.1z"/>
			</g>
			<g>
				<path class="st1" d="M418.8,278c-1.5,0-2.7-1-3-2.5c-0.3-1.7,0.8-3.2,2.5-3.5c9.9-1.7,11.8-5.4,11.9-5.4
					c0.5-1.6,2.3-2.5,3.9-1.9c1.6,0.5,2.5,2.3,1.9,3.9c-0.4,1.2-3,7.2-16.6,9.5C419.1,278,418.9,278,418.8,278z"/>
			</g>
			<path class="st1" d="M430.5,274.3l-2.3-24.9c0,0,10.9,0.8,10.9,12.2C439.1,265.5,438,269.7,430.5,274.3z"/>
			<g>
				<path class="st1" d="M361.9,193.3c2.8,10.4-3.5,21.1-13.9,23.8l0,0c-10.4,2.8-21.1-3.4-23.8-13.9l-3.5-13.1
					c-2.8-10.4,3.5-21.1,13.9-23.8l0,0c10.4-2.8,21.1,3.5,23.8,13.9L361.9,193.3z"/>
			</g>
			<g>
				<path class="st8" d="M360.1,186.4c-1.5,4.1-3.6,8.2-6.8,11c-7.8,6.8-19.9,8.6-29.4,4.5l0.4,1.3c2.8,10.4,13.4,16.6,23.8,13.9
					c10.4-2.8,16.6-13.4,13.9-23.8L360.1,186.4z"/>
			</g>
			<path class="st8" d="M324.1,202.6c-7.3-4.7-15.2-22.6-3.7-26.5c7.2-2.4,4.3,19.6,4.3,25.9L324.1,202.6z"/>
			<path class="st8" d="M318.3,177.6c-8.8-6.4,2.1-24.5,24-24.5c13.5,0,13.4,10.4,4.1,15.9c-7.8,4.6-19.8,1.9-25.6,9.8L318.3,177.6z
				"/>
			<path class="st8" d="M360,190.4c-3.1-4.7-9.2-14.2-11.6-19.6c-1.5-3.4-3.6-9.2,3.2-5.1c5.7,3.5,8.8,15.6,8.3,21.8L360,190.4z"/>
		</g>
	</g>
	<g>
		<g>
			<path class="st5" d="M205.5,233.8c-3.4,3.1-7.1,6-10.1,9.5l-44,92l32.8-42.3l34.8-72C214.6,225.3,210.1,229.6,205.5,233.8z"/>
			<path class="st5" d="M179.4,218.7c3.2-4.4,6.3-9.5,9.9-14l-77.1-37.6l-73.1,7.3l128.1,59.1C171.5,228.7,175.7,223.8,179.4,218.7z
				"/>
			<path class="st4" d="M190.4,205.2c-4.1,5.1-7.4,11.2-11.4,15.9c-3.5,4.3-7.1,8.6-10.7,12.8l58.2,26.9l21.1-27.6L190.4,205.2z"/>
			<path class="st6" d="M102.7,311.9l22.6-47.2L7,208.1l19-39.7L220.9,53.7L274,79.1l-78.2,163.3l32.2,15.4l-21.9,45.7L174,288.1
				l-22.6,47.2L102.7,311.9z M190.4,128.8l-3-1.4l-104.2,61l64,30.7L190.4,128.8z"/>
			<polygon class="st5" points="228.1,257.8 247.8,233.2 232.3,267.5 205.5,305 			"/>
			<path class="st5" d="M220.5,219.6l76.8-168.4L274,79.1l-78.2,163.3C198.1,240.3,219.3,220.9,220.5,219.6z"/>
			<polygon class="st17" points="26,168.4 60.7,138.2 251.1,28.9 220.9,53.7 			"/>
			<polygon class="st7" points="220.9,53.7 274,79.1 297.4,51.2 251.1,28.9 			"/>
		</g>
		<path class="st1" d="M155.6,176.7c-6.5-4.6-11-2.6-14.2-2.1c-3.4,0.5-6-1.3-6-1.4c-1.4-0.9-3.3-0.5-4.2,0.9
			c-0.9,1.4-0.5,3.3,0.9,4.2c0.1,0.1,2.8,1.8,7.5,3c-5.1,4.6-10.2,10.2-10.5,10.5c-1.1,1.2-1.1,3.2,0.2,4.3c0.6,0.5,1.3,0.8,2.1,0.8
			c0.8,0,1.6-0.3,2.2-1c0.1-0.1,3.7-4,7.7-7.8c-3.7,4.7-7.2,9.5-7.9,10.4c-1,1.4-0.7,3.3,0.7,4.3c0.5,0.4,1.2,0.6,1.8,0.6
			c0.9,0,1.9-0.4,2.5-1.3c2-2.8,4.8-6.6,7.5-9.9c-1,2-2.3,4.2-4.8,8.3c-0.9,1.4-0.5,3.3,1,4.2c0.5,0.3,1.1,0.5,1.6,0.5
			c1,0,2-0.5,2.6-1.4c1-1.7,1.9-3.1,2.6-4.3c-0.5,1.3-0.1,2.9,1.2,3.7c0.5,0.3,1.1,0.5,1.7,0.5c1,0,2-0.5,2.6-1.4
			c2.9-4.4,4.2-8,4.8-10.8l0.1,0.1C160.8,183,158.7,178.9,155.6,176.7z M149.5,198.2c1-1.8,1.7-3.1,2.3-4.4
			C151.3,195,150.5,196.5,149.5,198.2z"/>
		<path class="st8" d="M62.2,211.3c-9.7-0.5-23.7,18.4-9.3,23.5c-13-0.3-16.2,18-4.3,23.1c-20.8-4.1-18.4,22.9-8.6,32.7
			c-6.7-1.1-13.4,5.3-12.4,12.3c1,7,3.8,16.7,21.1,21.9c17.3,5.2,27.9-4.5,36.5-13.7c5.5,11.3,32.8-4,29.7-17.4
			c10.3,3.6,19.5-8,19.7-17.4c0.2-9.1-6.2-16.1-12.2-22c4.3-3.9,5.1-11.2,4-16.7c-1.9-9.2-13.4-10.1-13.4-17.4
			c0-2.6,0.5-10.5-1.7-14c-3.5-5.6-9.5-11.1-17.1-8.4C62.2,182.6,62.2,211.3,62.2,211.3z"/>
		<path class="st0" d="M80.9,507.4c-8.8-1.5-10.2-1.1-18.9-3.2l-20.1,24.6h78.1l-45.3-12.2L80.9,507.4z"/>
		<path class="st0" d="M226.2,514.4l-4.6-6.1c-4.2,2.7-8.5,5-13.2,6.6l12.3,13.8h45.7L226.2,514.4z"/>
		<path class="st0" d="M53.7,507.5c8.7,2.1,17.5,4.4,26.3,5.9l64.5-79.3l-11-31.5l-45.1-52l13,73.8L53.7,507.5z"/>
		<path class="st8" d="M141.4,328.6c-17.7-4.7-41.7,1.2-58.9,7.7c0,0,10.6,42,17.5,54.6c20.2,36.5,107.5,127.6,107.5,127.6
			c4.8-1.6,14-8.4,18.3-11.1L141.4,328.6z"/>
		<path class="st12" d="M80.1,352.8c17.1-6.4,51.3-17.2,68.9-12.8c0,0-23.3-54.7-33.9-66.8c-7.1-8.1-46.1-31.1-46.1-1.1
			C69.1,313.1,80.1,352.8,80.1,352.8z"/>
		<g>
			<path class="st1" d="M95.3,269.5c-0.2,0.1-0.5,0.1-0.7,0.2c-5.2,1.4-10.6-1.7-12-6.9c-1.5-5.4-1.5-12.2-1.5-13
				c0-5.4,4.3-9.8,9.7-9.8c5.4,0,9.8,4.3,9.8,9.7c0,1.9,0.3,5.7,0.9,8C102.8,262.8,100.1,267.9,95.3,269.5z"/>
		</g>
		<g>
			<path class="st10" d="M101.8,259.9c0-0.7-0.1-1.4-0.3-2.1c-0.6-2.2-0.9-6.1-0.9-8c0-5.4-4.4-9.7-9.8-9.7c-5.4,0-9.7,4.4-9.7,9.8
				c0,0.1,0,0.4,0,0.8C85.9,256.1,93.9,258.7,101.8,259.9z"/>
		</g>
		<g>
			<path class="st1" d="M111.4,230.6c3.1,9.7-2.2,20.1-11.8,23.3l0,0c-9.7,3.1-20.1-2.2-23.3-11.9l-4-12.2
				c-3.1-9.7,2.2-20.1,11.8-23.2l0,0c9.7-3.2,20.1,2.2,23.2,11.8L111.4,230.6z"/>
		</g>
		<path class="st1" d="M220,220.8c-0.4-0.3-0.8-0.5-1.3-0.6c0.4-0.5,0.9-1,1.5-1.6c1.1-1.2,1.1-3.2-0.2-4.3
			c-0.2-0.1-0.3-0.3-0.5-0.4c0.9-1.2,0.7-2.9-0.4-4c-0.9-0.8-2.1-1-3.1-0.6c1.4-1.4,2.3-2.4,2.4-2.5c1.1-1.3,1-3.2-0.3-4.3
			c-1.3-1.1-3.2-1-4.3,0.3c-0.1,0.1-6.7,7.6-13.5,11.4c-3-4.5-6.9-6-7.2-6.1c-1.6-0.6-3.3,0.2-3.9,1.7c-0.6,1.6,0.2,3.3,1.7,3.9
			c0.1,0.1,2.5,1,4.3,3.8c-0.3,0.7-0.5,1.7-0.7,2.8c-44.9,60.7-104.4,39.2-107.1,38.2c-5.3-2-11.3,0.6-13.4,5.9
			c-2.1,5.3,0.6,11.3,5.9,13.4c0.7,0.3,15.3,5.8,36.1,5.8c4.2,0,8.6-0.2,13.2-0.8c22.4-2.6,55.5-15.5,82-49.6c0.4-0.2,1-0.6,1.9-1.2
			c0.5-0.4,1.1-0.7,1.7-1.2l-0.1-0.1c1.6-1.3,3.5-3.2,5.7-5.8C221.5,223.8,221.3,221.9,220,220.8z"/>
		<path class="st2" d="M137.4,258.8l-2.5,0.5c-6.2,1.3-12.5,2-19,2c-15.7,0-26.7-4-27.8-4.4c-1.4-0.5-2.9-0.8-4.4-0.8
			c-5.1,0-9.5,3.1-11.4,7.8c-1.2,3-1.4,6.5,0.2,9.3c6,10.6,22.3,14.8,43.5,14.8c4.5,0,9-0.3,13.4-0.8c2.7-0.3,5.5-0.8,8.4-1.4
			l1.8-0.5c0,0-2.5-7.7-3.1-15.5C136.4,267,137.4,258.8,137.4,258.8z"/>
		<path class="st8" d="M71.9,239.6c6.4-4.1,8.6-11.7,7.9-19.3c5.6,3.8,10.1,1.5,13.6-5c10.6,14.9,26.9-7.3,4.7-15.3
			c-17.7-6.4-35,11.1-30.5,28.7L71.9,239.6z"/>
	</g>
</g>
</svg>
